# xmcd
#
# Track frame offsets:
#	150
#	21605
#	40153
#	59364
#	79804
#	95809
#	97643
#	113752
#	132041
#	148131
#	166719
#	187295
#	210523
#	229348
#	231199
#	246471
#
# Disc length: 3632 seconds
# Revision: 0
# Processed by: cddbd v1.5.2PL0 Copyright (c) Steve Scherf et al.
# Submitted via: dBpowerAMP V12.0
#
DISCID=e10e2e10
DTITLE=Various Artist - Trill O.G.
DYEAR=2010
DGENRE=Hip Hop
TTITLE0=Bun-B featuring J. Prince - Chuuch!
TTITLE1=Bun-B featuring T-Pain - Trillionaire
TTITLE2=Bun-B featuring Young Jeezy - Just Like That
TTITLE3=Bun-B featuring Drake - Put It Down
TTITLE4=Bun-B featuring Pimp C, 2Pac and Trey Songz - Right Now
TTITLE5=Bluesman Ceddy St. Louis - That's A Song
TTITLE6=Bun-B featuring Yo Gotti and Gucci Mane - Countin' Money
TTITLE7=Bun-B featuring Twista and Bluesman Ceddy St. Louis - Speakeasy
TTITLE8=Bun-B - Lights, Cameras, Action
TTITLE9=Bun-B - I Git Down 4 Mine
TTITLE10=Bun-B - Snow Money
TTITLE11=Bun-B featuring Slim Thug and Play-N-Skillz - Ridin' Slow
TTITLE12=Bun-B - Let 'Em Know
TTITLE13=Bluesman Ceddy St. Louis - Listen
TTITLE14=Bun-B featuring LeToya - All A Dream
TTITLE15=Bun-B featuring Drake - It's Been A Pleasure
EXTD=
EXTT0=
EXTT1=
EXTT2=
EXTT3=
EXTT4=
EXTT5=
EXTT6=
EXTT7=
EXTT8=
EXTT9=
EXTT10=
EXTT11=
EXTT12=
EXTT13=
EXTT14=
EXTT15=
PLAYORDER=
